<svg width="36" height="37" viewBox="0 0 36 37" fill="none" xmlns="http://www.w3.org/2000/svg">
<path d="M25.6712 9.26953H10.3288C9.97634 9.26953 9.63837 9.40952 9.38918 9.65871C9.13999 9.9079 9 10.2459 9 10.5983V25.9408C9 26.2932 9.13999 26.6312 9.38918 26.8804C9.63837 27.1295 9.97634 27.2695 10.3288 27.2695H25.6712C26.0237 27.2695 26.3616 27.1295 26.6108 26.8804C26.86 26.6312 27 26.2932 27 25.9408V10.5983C27 10.2459 26.86 9.9079 26.6108 9.65871C26.3616 9.40952 26.0237 9.26953 25.6712 9.26953ZM14.365 24.6033H11.6588V16.007H14.365V24.6033ZM13.01 14.8158C12.703 14.8141 12.4034 14.7214 12.1491 14.5496C11.8947 14.3778 11.6969 14.1344 11.5807 13.8503C11.4644 13.5662 11.435 13.254 11.496 12.9531C11.5571 12.6523 11.7059 12.3762 11.9236 12.1599C12.1414 11.9435 12.4184 11.7965 12.7196 11.7374C13.0208 11.6783 13.3328 11.7097 13.6162 11.8278C13.8996 11.9458 14.1417 12.1452 14.3118 12.4006C14.482 12.6561 14.5727 12.9563 14.5725 13.2633C14.5754 13.4688 14.5369 13.6728 14.4593 13.8631C14.3816 14.0535 14.2665 14.2262 14.1207 14.3711C13.9749 14.516 13.8014 14.63 13.6106 14.7064C13.4197 14.7828 13.2155 14.82 13.01 14.8158ZM24.34 24.6108H21.635V19.9145C21.635 18.5295 21.0463 18.102 20.2863 18.102C19.4838 18.102 18.6962 18.707 18.6962 19.9495V24.6108H15.99V16.0133H18.5925V17.2045H18.6275C18.8888 16.6758 19.8038 15.772 21.2 15.772C22.71 15.772 24.3412 16.6683 24.3412 19.2933L24.34 24.6108Z" fill="white"/>
</svg>
