<svg width="24" height="25" viewBox="0 0 24 25" fill="none" xmlns="http://www.w3.org/2000/svg">
<path d="M12.0061 9.44346C10.4484 9.44346 9.17729 10.713 9.17729 12.2686C9.17729 13.8242 10.4484 15.0937 12.0061 15.0937C13.5638 15.0937 14.8349 13.8242 14.8349 12.2686C14.8349 10.713 13.5638 9.44346 12.0061 9.44346ZM20.4904 12.2686C20.4904 11.0987 20.501 9.93939 20.4353 8.77162C20.3695 7.41524 20.0596 6.21145 19.0665 5.21959C18.0712 4.22561 16.8679 3.91831 15.5098 3.85261C14.3383 3.78691 13.1775 3.79751 12.0082 3.79751C10.8368 3.79751 9.67599 3.78691 8.50669 3.85261C7.14852 3.91831 5.94314 4.22773 4.94998 5.21959C3.95469 6.21357 3.64698 7.41524 3.5812 8.77162C3.51541 9.94151 3.52602 11.1008 3.52602 12.2686C3.52602 13.4363 3.51541 14.5977 3.5812 15.7655C3.64698 17.1219 3.95682 18.3257 4.94998 19.3175C5.94526 20.3115 7.14852 20.6188 8.50669 20.6845C9.67811 20.7502 10.8389 20.7396 12.0082 20.7396C13.1796 20.7396 14.3405 20.7502 15.5098 20.6845C16.8679 20.6188 18.0733 20.3094 19.0665 19.3175C20.0618 18.3235 20.3695 17.1219 20.4353 15.7655C20.5032 14.5977 20.4904 13.4384 20.4904 12.2686V12.2686ZM12.0061 16.6153C9.59747 16.6153 7.65359 14.674 7.65359 12.2686C7.65359 9.86309 9.59747 7.92176 12.0061 7.92176C14.4147 7.92176 16.3586 9.86309 16.3586 12.2686C16.3586 14.674 14.4147 16.6153 12.0061 16.6153ZM16.5369 8.75891C15.9745 8.75891 15.5204 8.30537 15.5204 7.74374C15.5204 7.18211 15.9745 6.72857 16.5369 6.72857C17.0992 6.72857 17.5534 7.18211 17.5534 7.74374C17.5536 7.8771 17.5274 8.00918 17.4763 8.13242C17.4253 8.25567 17.3505 8.36764 17.256 8.46195C17.1616 8.55625 17.0495 8.63102 16.9261 8.68197C16.8027 8.73293 16.6704 8.75908 16.5369 8.75891V8.75891Z" fill="white"/>
</svg>
