<svg width="150" height="50" viewBox="0 0 150 50" fill="none" xmlns="http://www.w3.org/2000/svg">
<path d="M73.7469 16.9122H77.8451V35.1208H87.0441V39.0838H73.7469V16.9122Z" fill="#212229"/>
<path d="M90.0938 21.6738C90.4056 21.8083 90.7409 21.8772 91.0794 21.8762C91.4171 21.8819 91.7525 21.8181 92.0655 21.6888C92.3785 21.5594 92.6628 21.3671 92.9013 21.1232C93.1419 20.8833 93.3331 20.5967 93.4636 20.2804C93.5941 19.964 93.6613 19.6242 93.6613 19.281C93.6613 18.9378 93.5941 18.598 93.4636 18.2817C93.3331 17.9653 93.1419 17.6788 92.9013 17.4388C92.4182 16.9524 91.7668 16.6797 91.088 16.6797C90.4092 16.6797 89.7577 16.9524 89.2746 17.4388C89.0418 17.6737 88.8557 17.9523 88.7265 18.2593C88.5932 18.5822 88.5265 18.9296 88.5303 19.2799C88.5257 19.7928 88.6723 20.2954 88.9511 20.7222C89.2299 21.1491 89.628 21.4806 90.0938 21.6738Z" fill="#212229"/>
<path d="M89.1061 23.9197V39.0925H93.0828V23.9197H89.1061Z" fill="#212229"/>
<path fill-rule="evenodd" clip-rule="evenodd" d="M102.828 46.2763C101.876 46.2917 100.928 46.1505 100.021 45.8584C99.2597 45.6076 98.5404 45.2407 97.8872 44.7703C97.3126 44.3589 96.8008 43.8632 96.3682 43.2992C95.9917 42.8141 95.6942 42.2704 95.4872 41.6888L99.2824 40.1415C99.5348 40.9052 100.026 41.5633 100.68 42.0152C101.315 42.4547 102.067 42.6869 102.834 42.6812C104.089 42.6812 105.08 42.2655 105.808 41.4342C106.536 40.6029 106.901 39.4595 106.903 38.0044V36.9511H106.66C106.184 37.62 105.553 38.1577 104.823 38.5158C103.982 38.9147 103.063 39.1106 102.137 39.0881C101.244 39.0869 100.36 38.8996 99.5405 38.5376C98.7001 38.1694 97.9411 37.632 97.3091 36.9576C96.6398 36.2391 96.105 35.402 95.7305 34.4875C95.3144 33.4683 95.108 32.3729 95.1245 31.2689C95.1091 30.1602 95.3155 29.0598 95.7305 28.035C96.1022 27.1144 96.6373 26.2719 97.3091 25.5497C97.9418 24.8767 98.7006 24.3401 99.5405 23.9719C100.36 23.6081 101.243 23.42 102.137 23.4191C103.063 23.3967 103.982 23.5926 104.823 23.9915C105.553 24.3496 106.184 24.8874 106.66 25.5563H106.903V23.9154H110.696V38.0044C110.713 39.1819 110.518 40.3527 110.12 41.4581C109.766 42.4291 109.218 43.3147 108.511 44.0587C107.81 44.7787 106.966 45.3379 106.037 45.6995C105.012 46.0942 103.923 46.2899 102.828 46.2763ZM102.98 35.4386C103.473 35.4374 103.961 35.3445 104.422 35.1644C104.891 34.9865 105.319 34.7124 105.68 34.3591C106.057 33.9884 106.356 33.5444 106.561 33.0534C106.793 32.4909 106.907 31.8854 106.896 31.2754C106.906 30.6606 106.792 30.0503 106.561 29.4821C106.359 28.9846 106.059 28.5344 105.68 28.1591C105.319 27.8058 104.891 27.5317 104.422 27.3538C103.961 27.1737 103.473 27.0808 102.98 27.0797C102.491 27.08 102.007 27.1729 101.552 27.3538C101.086 27.5366 100.663 27.816 100.309 28.1743C99.9341 28.5532 99.6347 29.0025 99.4274 29.4974C98.9836 30.6395 98.9836 31.9113 99.4274 33.0534C99.6325 33.5444 99.9322 33.9884 100.309 34.3591C100.667 34.7093 101.089 34.9831 101.552 35.1644C102.007 35.3453 102.491 35.4382 102.98 35.4386Z" fill="#212229"/>
<path d="M117.216 23.9197H113.482L113.463 39.0881H117.44V31.6171C117.434 31.0306 117.521 30.4472 117.698 29.8891C117.856 29.3861 118.103 28.917 118.427 28.5051C118.734 28.1152 119.122 27.8011 119.565 27.5866C120.031 27.363 120.542 27.2507 121.058 27.2581C121.421 27.2517 121.783 27.2882 122.137 27.3669C122.415 27.4344 122.685 27.5329 122.942 27.6607L124.008 24.0394C123.714 23.8405 123.39 23.6893 123.05 23.5911C122.611 23.4671 122.156 23.4092 121.7 23.4191C121.265 23.4239 120.833 23.4973 120.42 23.6368C119.994 23.7729 119.586 23.9599 119.204 24.1939C118.834 24.4203 118.493 24.6923 118.188 25.0035C117.892 25.301 117.646 25.6457 117.459 26.0242H117.216V23.9197Z" fill="#212229"/>
<path fill-rule="evenodd" clip-rule="evenodd" d="M138.402 35.4385C137.734 36.657 136.781 37.6887 135.629 38.4418C134.467 39.2049 133.044 39.5872 131.362 39.5887C130.286 39.5993 129.218 39.3937 128.219 38.9836C127.281 38.5997 126.43 38.026 125.715 37.297C125 36.568 124.438 35.699 124.062 34.7422C123.658 33.7135 123.457 32.6139 123.471 31.5061C123.465 30.4406 123.661 29.384 124.047 28.394C124.787 26.4651 126.243 24.9126 128.1 24.0742C129.08 23.632 130.141 23.4094 131.212 23.4213C132.304 23.4013 133.388 23.6064 134.4 24.0241C135.294 24.3978 136.095 24.9694 136.746 25.6977C137.385 26.4304 137.87 27.2887 138.171 28.2199C138.503 29.2387 138.668 30.3064 138.658 31.3798V31.7519C138.639 31.8642 138.629 31.9777 138.628 32.0915C138.607 32.204 138.597 32.3185 138.598 32.4331H127.396C127.458 32.9928 127.628 33.5344 127.897 34.0262C128.137 34.457 128.457 34.8361 128.838 35.1426C129.203 35.4377 129.62 35.6592 130.067 35.7954C130.511 35.9284 130.972 35.9958 131.434 35.9956C132.234 36.0277 133.025 35.8057 133.696 35.3602C134.282 34.9493 134.765 34.4036 135.106 33.7672L138.402 35.4385ZM134.79 29.5626C134.757 29.2506 134.669 28.947 134.532 28.666C134.367 28.3173 134.141 28.0025 133.864 27.7368C133.547 27.4319 133.177 27.1905 132.772 27.0252C132.274 26.8271 131.743 26.7323 131.208 26.7466C130.399 26.7314 129.609 26.9926 128.962 27.4887C128.297 28.0095 127.817 28.7378 127.596 29.5626H134.79Z" fill="#212229"/>
<path d="M139.163 27.3864H141.774L141.791 34.1851C141.791 35.9333 142.267 37.2819 143.218 38.2307C143.642 38.6662 144.151 39.0059 144.712 39.2274C145.356 39.4781 146.041 39.6014 146.73 39.5909C147.326 39.5952 147.922 39.5376 148.507 39.4189C149.023 39.3108 149.524 39.1399 150 38.9097L148.876 35.3472C148.469 35.6376 147.977 35.7795 147.481 35.7498C147.254 35.7648 147.027 35.7268 146.816 35.6385C146.606 35.5503 146.418 35.4142 146.267 35.2406C146.062 35.0231 145.92 34.7519 145.857 34.4571C145.783 34.1274 145.747 33.7899 145.751 33.4517V27.3864H149.392V23.9197H145.751V19.2734H141.774V23.9197H139.163V27.3864Z" fill="#212229"/>
<path fill-rule="evenodd" clip-rule="evenodd" d="M57.6323 13.5471C47.9053 6.99435 42.8237 18.8162 38.7153 28.3741C37.8584 30.3674 37.0436 32.2629 36.2381 33.8721C31.4482 31.2909 27.8592 24.24 24.6741 17.9824C23.7278 16.1234 22.8172 14.3344 21.9213 12.7534C17.2859 3.58834 10.7353 -4.28145 3.64441 2.6736C-10.9668 20.447 21.8213 70.7114 40.7871 39.0471C55.3983 42.9132 69.6504 22.7341 57.6323 13.5471ZM31.4299 42.4391C20.6248 56.1233 1.87514 19.1546 8.24477 9.15188C8.24477 9.15188 9.40081 6.61675 11.5807 7.90636C13.0468 8.77367 15.5661 13.3353 17.9257 17.6078C19.0746 19.688 20.1857 21.6998 21.1189 23.1832C26.1027 31.1413 28.4502 33.9079 34.7361 37.4709C33.923 39.1986 32.5346 41.2928 31.4244 42.4391H31.4299ZM55.5143 24.7539C53.6991 30.5792 47.9858 36.0682 42.278 35.8946C42.7434 34.8694 43.3027 33.549 43.9264 32.077C46.4272 26.1742 49.9614 17.8322 52.6078 16.2971C55.7926 14.4481 56.8057 20.6289 55.509 24.7539H55.5143Z" fill="url(#paint0_linear_1275_35160)"/>
<defs>
<linearGradient id="paint0_linear_1275_35160" x1="-15.3024" y1="35.8231" x2="95.976" y2="0.231821" gradientUnits="userSpaceOnUse">
<stop offset="0.12" stop-color="#FFC300"/>
<stop offset="0.17" stop-color="#FFB30A"/>
<stop offset="0.25" stop-color="#FF8B25"/>
<stop offset="0.3" stop-color="#FF7136"/>
<stop offset="0.39" stop-color="#FF545A"/>
<stop offset="0.45" stop-color="#FF3A7A"/>
<stop offset="0.52" stop-color="#CE4693"/>
<stop offset="0.66" stop-color="#5565D3"/>
<stop offset="0.75" stop-color="#007AFF"/>
</linearGradient>
</defs>
</svg>
