<svg width="111" height="34" viewBox="0 0 111 34" fill="none" xmlns="http://www.w3.org/2000/svg">
<path d="M48.8562 11.7872H51.5434V23.7258H57.5752V26.3242H48.8562V11.7872Z" fill="white"/>
<path d="M59.575 14.9092C59.7794 14.9974 59.9993 15.0426 60.2213 15.0419C60.4427 15.0456 60.6626 15.0038 60.8678 14.919C61.0731 14.8342 61.2595 14.7081 61.4159 14.5482C61.5736 14.3909 61.699 14.203 61.7846 13.9956C61.8701 13.7882 61.9142 13.5654 61.9142 13.3403C61.9142 13.1153 61.8701 12.8925 61.7846 12.6851C61.699 12.4777 61.5736 12.2898 61.4159 12.1325C61.0991 11.8136 60.6719 11.6348 60.2269 11.6348C59.7818 11.6348 59.3546 11.8136 59.0378 12.1325C58.8851 12.2865 58.7632 12.4692 58.6784 12.6704C58.591 12.8822 58.5472 13.1099 58.5497 13.3396C58.5468 13.6759 58.6429 14.0054 58.8257 14.2853C59.0085 14.5652 59.2695 14.7825 59.575 14.9092Z" fill="white"/>
<path d="M58.9273 16.3818V26.3299H61.5349V16.3818H58.9273Z" fill="white"/>
<path fill-rule="evenodd" clip-rule="evenodd" d="M67.9249 31.04C67.3008 31.0501 66.6792 30.9575 66.084 30.766C65.5851 30.6015 65.1135 30.361 64.6852 30.0526C64.3084 29.7828 63.9728 29.4578 63.6892 29.088C63.4423 28.77 63.2472 28.4135 63.1115 28.0322L65.6 27.0177C65.7655 27.5184 66.0873 27.9499 66.5162 28.2462C66.933 28.5343 67.4257 28.6866 67.9291 28.6828C68.7517 28.6828 69.4016 28.4103 69.8791 27.8652C70.3565 27.3202 70.5957 26.5705 70.5967 25.6164V24.9259H70.4372C70.1254 25.3644 69.7115 25.717 69.2328 25.9518C68.6818 26.2133 68.0792 26.3417 67.4717 26.327C66.886 26.3262 66.3067 26.2034 65.7693 25.9661C65.2182 25.7247 64.7205 25.3723 64.3061 24.9301C63.8673 24.459 63.5165 23.9102 63.271 23.3106C62.9981 22.6424 62.8628 21.9241 62.8736 21.2003C62.8636 20.4734 62.9988 19.7519 63.271 19.0799C63.5148 18.4764 63.8656 17.924 64.3061 17.4505C64.721 17.0092 65.2185 16.6574 65.7693 16.416C66.3064 16.1775 66.8858 16.0541 67.4717 16.0535C68.0792 16.0388 68.6818 16.1672 69.2328 16.4288C69.7115 16.6636 70.1254 17.0162 70.4372 17.4548H70.5967V16.3789H73.0839V25.6164C73.0952 26.3885 72.9672 27.1561 72.7061 27.8809C72.4739 28.5176 72.1148 29.0982 71.6514 29.586C71.1915 30.0581 70.6384 30.4247 70.0288 30.6618C69.3568 30.9206 68.6432 31.0489 67.9249 31.04ZM68.0242 23.9342C68.3475 23.9334 68.668 23.8725 68.9698 23.7544C69.2774 23.6377 69.5583 23.458 69.7952 23.2264C70.042 22.9834 70.2384 22.6922 70.3729 22.3703C70.5247 22.0015 70.5995 21.6045 70.5926 21.2046C70.5988 20.8015 70.524 20.4013 70.3729 20.0288C70.2401 19.7026 70.0436 19.4074 69.7952 19.1613C69.5583 18.9297 69.2774 18.75 68.9698 18.6333C68.668 18.5152 68.3475 18.4543 68.0242 18.4536C67.7041 18.4538 67.3867 18.5147 67.0883 18.6333C66.7829 18.7532 66.5054 18.9364 66.2729 19.1713C66.0273 19.4197 65.831 19.7143 65.6951 20.0388C65.4041 20.7876 65.4041 21.6215 65.6951 22.3703C65.8295 22.6922 66.0261 22.9834 66.2729 23.2264C66.5076 23.456 66.7848 23.6355 67.0883 23.7544C67.3867 23.873 67.7041 23.9339 68.0242 23.9342Z" fill="white"/>
<path d="M77.3591 16.3818H74.9111L74.8984 26.327H77.5059V21.4286C77.5021 21.0441 77.5593 20.6615 77.6752 20.2956C77.7788 19.9658 77.941 19.6582 78.1536 19.3882C78.3543 19.1325 78.6092 18.9266 78.8992 18.786C79.2053 18.6393 79.5402 18.5657 79.8784 18.5706C80.1162 18.5664 80.3537 18.5903 80.5861 18.6419C80.7683 18.6862 80.9452 18.7508 81.1136 18.8345L81.813 16.4602C81.6197 16.3298 81.4078 16.2307 81.1849 16.1663C80.8966 16.085 80.5983 16.047 80.2994 16.0535C80.0141 16.0566 79.7309 16.1048 79.4601 16.1962C79.1811 16.2855 78.9134 16.4081 78.6627 16.5615C78.4203 16.71 78.1967 16.8883 77.9969 17.0923C77.8028 17.2874 77.6412 17.5134 77.5185 17.7615H77.3591V16.3818Z" fill="white"/>
<path fill-rule="evenodd" clip-rule="evenodd" d="M91.251 23.9341C90.8128 24.7331 90.1882 25.4094 89.4325 25.9032C88.6706 26.4036 87.738 26.6543 86.6348 26.6552C85.9291 26.6622 85.2289 26.5274 84.5742 26.2585C83.9592 26.0068 83.4006 25.6306 82.9321 25.1527C82.4635 24.6747 82.0947 24.1049 81.848 23.4776C81.5836 22.8031 81.4518 22.0821 81.4604 21.3558C81.4568 20.6572 81.5851 19.9644 81.8381 19.3153C82.3233 18.0507 83.2785 17.0327 84.4959 16.483C85.1384 16.1931 85.8344 16.0472 86.5368 16.055C87.2524 16.0419 87.9633 16.1763 88.6268 16.4502C89.213 16.6952 89.7386 17.07 90.1655 17.5475C90.5844 18.0279 90.9024 18.5907 91.0999 19.2012C91.3175 19.8691 91.4253 20.5692 91.4189 21.273V21.517C91.4067 21.5906 91.4001 21.665 91.3992 21.7396C91.3852 21.8134 91.3787 21.8884 91.3797 21.9636H84.0343C84.0748 22.3306 84.1865 22.6857 84.363 23.0081C84.5202 23.2906 84.7297 23.5392 84.9799 23.7401C85.2195 23.9336 85.4929 24.0788 85.7856 24.1681C86.0769 24.2553 86.3788 24.2995 86.6823 24.2994C87.207 24.3204 87.7251 24.1749 88.1652 23.8828C88.5494 23.6134 88.8661 23.2556 89.0897 22.8383L91.251 23.9341ZM88.8828 20.0816C88.8608 19.877 88.8035 19.6779 88.7135 19.4937C88.6052 19.2651 88.4568 19.0586 88.2757 18.8845C88.0677 18.6846 87.8248 18.5263 87.5595 18.4179C87.233 18.288 86.8844 18.2258 86.5341 18.2352C86.0037 18.2252 85.4851 18.3965 85.0611 18.7218C84.6252 19.0632 84.3107 19.5408 84.1658 20.0816H88.8828Z" fill="white"/>
<path d="M91.7501 18.6547H93.4622L93.4734 23.1123C93.4734 24.2586 93.7854 25.1427 94.4092 25.7648C94.687 26.0504 95.0207 26.2731 95.3884 26.4184C95.8107 26.5827 96.2598 26.6635 96.7118 26.6566C97.1029 26.6595 97.4933 26.6217 97.877 26.5439C98.2153 26.473 98.5441 26.361 98.8562 26.21L98.1189 23.8742C97.8518 24.0647 97.5295 24.1577 97.2041 24.1382C97.0552 24.1481 96.9062 24.1231 96.7683 24.0653C96.6304 24.0074 96.5072 23.9182 96.4082 23.8044C96.2739 23.6617 96.1809 23.4839 96.1396 23.2907C96.0909 23.0745 96.0675 22.8532 96.0697 22.6314V18.6547H98.4574V16.3818H96.0697V13.3354H93.4622V16.3818H91.7501V18.6547Z" fill="white"/>
<path fill-rule="evenodd" clip-rule="evenodd" d="M38.29 9.59074C31.9119 5.2944 28.5798 13.0455 25.8859 19.3122C25.3241 20.6191 24.7898 21.8619 24.2616 22.917C21.1208 21.2246 18.7675 16.6016 16.679 12.4988C16.0585 11.2799 15.4614 10.1069 14.874 9.07034C11.8345 3.06123 7.53921 -2.09866 2.88967 2.46147C-6.69104 14.1147 14.8084 47.0709 27.2444 26.31C36.8251 28.8448 46.1703 15.6143 38.29 9.59074ZM21.1088 28.534C14.0238 37.5061 1.72955 13.2674 5.90616 6.709C5.90616 6.709 6.66419 5.04683 8.09359 5.89237C9.05493 6.46103 10.7068 9.45186 12.254 12.2532C13.0074 13.6171 13.7359 14.9361 14.3478 15.9087C17.6158 21.1265 19.155 22.9405 23.2767 25.2766C22.7436 26.4094 21.8332 27.7824 21.1052 28.534H21.1088ZM36.9012 16.9386C35.7109 20.758 31.9647 24.3569 28.2221 24.2431C28.5272 23.5709 28.894 22.7052 29.3029 21.74C30.9427 17.8698 33.2601 12.4003 34.9954 11.3938C37.0837 10.1815 37.7479 14.234 36.8977 16.9386H36.9012Z" fill="white"/>
</svg>
