<svg width="22" height="14" viewBox="0 0 22 14" fill="none" xmlns="http://www.w3.org/2000/svg">
<g id="Union">
<path fill-rule="evenodd" clip-rule="evenodd" d="M18.7947 2.24484C17.9714 3.07093 17.1656 3.87942 17.1765 3.87942C19.8371 3.87942 22 5.98446 22 8.58123C22 11.178 19.8432 13.283 17.1826 13.283C14.8383 13.283 12.3957 11.2789 11 9.90753C9.60131 11.2769 7.15867 13.283 4.81738 13.283C2.15682 13.283 0 11.178 0 8.58123C0 5.98446 2.15682 3.87942 4.8113 3.87942C4.82452 3.87942 3.90754 2.95936 3.0305 2.07937C2.22668 1.27285 1.45642 0.5 1.4666 0.5C2.02608 0.509795 4.10182 0.5 4.10182 0.5L10.9939 7.47826L17.886 0.5C17.886 0.5 19.9618 0.509795 20.5212 0.5C20.5337 0.5 19.6546 1.38201 18.7947 2.24484ZM2.78048 10.6938C3.36022 11.2541 4.1465 11.5688 4.96637 11.5688C7.24685 11.5688 9.67935 8.63021 9.67935 8.63021C9.67935 8.63021 7.14549 5.59362 4.96637 5.59362C4.1465 5.59362 3.36022 5.90839 2.78048 6.46868C2.20075 7.02896 1.87506 7.78887 1.87506 8.58123C1.87506 9.37359 2.20075 10.1335 2.78048 10.6938ZM12.3146 8.63021C12.3146 8.63021 14.7471 11.5688 17.0276 11.5688C17.8474 11.5688 18.6337 11.2541 19.2134 10.6938C19.7932 10.1335 20.1189 9.37359 20.1189 8.58123C20.1189 7.78887 19.7932 7.02896 19.2134 6.46868C18.6337 5.90839 17.8474 5.59362 17.0276 5.59362C14.8484 5.59362 12.3146 8.63021 12.3146 8.63021Z" fill="white"/>
<path d="M10.9918 11.3681L12.0762 12.416L10.9545 13.5L9.8702 12.452L10.9918 11.3681Z" fill="white"/>
</g>
</svg>
